<svg width="26" height="26" viewBox="0 0 26 26" fill="none" xmlns="http://www.w3.org/2000/svg">
<path fill-rule="evenodd" clip-rule="evenodd" d="M22.0485 16.153C21.5857 15.7572 21.3193 15.1786 21.3193 14.5697V9.54883C21.3193 5.43424 17.5902 2.11133 12.986 2.11133C8.38184 2.11133 4.65268 5.43424 4.65268 9.54883V14.5697C4.65272 15.1786 4.3863 15.7572 3.92351 16.153C2.35059 17.5592 3.46518 19.9551 5.69434 19.9551H9.65268C10.1577 21.3617 11.4914 22.3 12.986 22.3C14.4806 22.3 15.8143 21.3617 16.3193 19.9551H20.2777C22.5068 19.9551 23.6214 17.5592 22.0485 16.153ZM12.986 20.7363C12.366 20.734 11.7817 20.4457 11.4027 19.9551H14.5277C14.1606 20.438 13.5925 20.7259 12.986 20.7363ZM20.2881 18.3926C20.6668 18.4269 21.0274 18.2238 21.1943 17.8822C21.2754 17.6764 21.2016 17.4419 21.0173 17.3197C20.2324 16.6196 19.7787 15.6213 19.7673 14.5697V9.54883C19.7673 6.30925 16.7256 3.67383 12.9964 3.67383C9.26726 3.67383 6.22559 6.30925 6.22559 9.54883V14.5697C6.21417 15.6213 5.76043 16.6196 4.97559 17.3197C4.78738 17.4388 4.70901 17.6739 4.78809 17.8822C4.95507 18.2238 5.31563 18.4269 5.69434 18.3926H20.2881Z" fill="#28303F"/>
<path d="M17.7988 0.929688C18.5964 1.23727 20.4923 2.34463 21.6953 4.31335" stroke="#28303F" stroke-width="1.5" strokeLinecap="round"/>
<path d="M8.33203 0.929688C7.53446 1.23727 5.63857 2.34463 4.43555 4.31335" stroke="#28303F" stroke-width="1.5" strokeLinecap="round"/>
</svg>
