<svg width="20" height="20" viewBox="0 0 20 20" fill="none" xmlns="http://www.w3.org/2000/svg">
<path fill-rule="evenodd" clip-rule="evenodd" d="M6.5 0.0273438H13.5C16.8137 0.0273438 19.5 2.71364 19.5 6.02734V13.0273C19.5 16.3411 16.8137 19.0273 13.5 19.0273H6.5C3.18629 19.0273 0.5 16.3411 0.5 13.0273V6.02734C0.5 2.71364 3.18629 0.0273438 6.5 0.0273438ZM13.5 17.5273C15.983 17.5218 17.9945 15.5103 18 13.0273V6.02734C17.9945 3.54434 15.983 1.53284 13.5 1.52734H6.5C4.017 1.53284 2.0055 3.54434 2 6.02734V13.0273C2.0055 15.5103 4.017 17.5218 6.5 17.5273H13.5Z" fill="#28303F"/>
<path d="M13.1803 4.52734C12.7684 4.53273 12.4357 4.86538 12.4303 5.27734C12.4199 5.90861 12.157 6.50938 11.7003 6.94535C11.2437 7.38133 10.6314 7.61616 10.0003 7.59734C8.70048 7.63664 7.6138 6.61704 7.57031 5.31734C7.57031 4.90313 7.23453 4.56734 6.82031 4.56734C6.4061 4.56734 6.07031 4.90313 6.07031 5.31734C6.11407 7.44538 7.87218 9.13639 10.0003 9.09734C12.1284 9.13639 13.8866 7.44538 13.9303 5.31734C13.9413 5.1116 13.8672 4.91039 13.7253 4.76096C13.5834 4.61154 13.3864 4.52705 13.1803 4.52734Z" fill="#28303F"/>
</svg>
