<svg width="22" height="21" viewBox="0 0 22 21" fill="none" xmlns="http://www.w3.org/2000/svg">
<path fill-rule="evenodd" clip-rule="evenodd" d="M13.8409 1.03837L19.6322 5.32076C20.7484 6.1294 21.4124 7.42234 21.4201 8.80158V16.5538C21.3483 19.0396 19.2859 21.0014 16.8024 20.946H5.20875C2.72104 21.0075 0.6518 19.044 0.580078 16.5538V8.80158C0.587712 7.42234 1.25181 6.1294 2.36793 5.32076L8.15926 1.03837C9.8502 -0.202894 12.15 -0.202894 13.8409 1.03837ZM6.06322 16.3008H15.9348C16.3891 16.3008 16.7574 15.9321 16.7574 15.4772C16.7574 15.0224 16.3891 14.6537 15.9348 14.6537H6.06322C5.60889 14.6537 5.24059 15.0224 5.24059 15.4772C5.24059 15.9321 5.60889 16.3008 6.06322 16.3008Z" fill="#28303F"/>
</svg>
