<svg width="11" height="11" viewBox="0 0 11 11" fill="none" xmlns="http://www.w3.org/2000/svg">
<path fill-rule="evenodd" clip-rule="evenodd" d="M3.47368 0H7.52632C9.44478 0 11 1.55522 11 3.47368V7.52632C11 9.44478 9.44478 11 7.52632 11H3.47368C1.55522 11 0 9.44478 0 7.52632V3.47368C0 1.55522 1.55522 0 3.47368 0ZM7.52633 10.1315C8.96386 10.1284 10.1284 8.96381 10.1316 7.52629V3.47365C10.1284 2.03613 8.96386 0.871575 7.52633 0.868391H3.4737C2.03618 0.871575 0.871623 2.03613 0.868439 3.47365V7.52629C0.871623 8.96381 2.03618 10.1284 3.4737 10.1315H7.52633Z" fill="#28303F"/>
<path d="M7.34093 2.60547C7.10242 2.60859 6.90983 2.80118 6.90671 3.03968C6.90068 3.40515 6.74846 3.75296 6.48409 4.00537C6.21971 4.25778 5.86523 4.39373 5.49987 4.38284C4.74734 4.40559 4.11821 3.81529 4.09303 3.06284C4.09303 2.82303 3.89863 2.62863 3.65882 2.62863C3.41901 2.62863 3.22461 2.82303 3.22461 3.06284C3.24994 4.29486 4.2678 5.27387 5.49987 5.25126C6.73195 5.27387 7.7498 4.29486 7.77514 3.06284C7.7815 2.94372 7.73857 2.82723 7.65645 2.74072C7.57432 2.65421 7.46021 2.6053 7.34093 2.60547Z" fill="#28303F"/>
</svg>
