<svg width="18" height="20" viewBox="0 0 18 20" fill="none" xmlns="http://www.w3.org/2000/svg">
<path fill-rule="evenodd" clip-rule="evenodd" d="M13.5799 14.353C13.2467 14.0838 13.0549 13.6905 13.0549 13.2764V9.86219C13.0549 7.06427 10.3699 4.80469 7.05493 4.80469C3.73993 4.80469 1.05493 7.06427 1.05493 9.86219V13.2764C1.05495 13.6905 0.863133 14.0838 0.529926 14.353C-0.602574 15.3093 0.199926 16.9384 1.80493 16.9384H4.65493C5.01856 17.895 5.97883 18.533 7.05493 18.533C8.13102 18.533 9.0913 17.895 9.45493 16.9384H12.3049C13.9099 16.9384 14.7124 15.3093 13.5799 14.353ZM7.05493 17.4697C6.60852 17.4681 6.18786 17.2721 5.91493 16.9384H8.16493C7.90067 17.2668 7.49157 17.4626 7.05493 17.4697ZM12.3124 15.8759C12.5851 15.8993 12.8447 15.7612 12.9649 15.5289C13.0233 15.3889 12.9702 15.2295 12.8374 15.1464C12.2723 14.6703 11.9457 13.9915 11.9374 13.2764V9.86219C11.9374 7.65927 9.74743 5.86719 7.06243 5.86719C4.37743 5.86719 2.18743 7.65927 2.18743 9.86219V13.2764C2.1792 13.9915 1.85251 14.6703 1.28743 15.1464C1.15192 15.2274 1.09548 15.3873 1.15243 15.5289C1.27265 15.7612 1.53225 15.8993 1.80493 15.8759H12.3124Z" fill="#28303F"/>
<path d="M10.5195 4C11.0938 4.20916 12.4588 4.96216 13.325 6.30089" stroke="#28303F" stroke-width="1.5" stroke-linecap="round"/>
<path d="M3.70312 4C3.12887 4.20916 1.76383 4.96216 0.897656 6.30089" stroke="#28303F" stroke-width="1.5" stroke-linecap="round"/>
<path d="M11.8198 5.17356C11.5278 5.17356 11.2378 5.13556 10.9498 5.05956C10.6618 4.97956 10.4178 4.86756 10.2178 4.72356L10.5958 3.97956C10.7558 4.09556 10.9418 4.18756 11.1538 4.25556C11.3658 4.32356 11.5798 4.35756 11.7958 4.35756C12.0398 4.35756 12.2318 4.30956 12.3718 4.21356C12.5118 4.11756 12.5818 3.98556 12.5818 3.81756C12.5818 3.65756 12.5198 3.53156 12.3958 3.43956C12.2718 3.34756 12.0718 3.30156 11.7958 3.30156H11.3518V2.65956L12.5218 1.33356L12.6298 1.68156H10.4278V0.901562H13.3678V1.53156L12.2038 2.85756L11.7118 2.57556H11.9938C12.5098 2.57556 12.8998 2.69156 13.1638 2.92356C13.4278 3.15556 13.5598 3.45356 13.5598 3.81756C13.5598 4.05356 13.4978 4.27556 13.3738 4.48356C13.2498 4.68756 13.0598 4.85356 12.8038 4.98156C12.5478 5.10956 12.2198 5.17356 11.8198 5.17356Z" fill="white"/>
</svg>
