<svg width="22" height="22" viewBox="0 0 22 22" fill="none" xmlns="http://www.w3.org/2000/svg">
<path d="M10.8413 19.8972C8.41513 19.8972 6.08837 18.9334 4.37284 17.2179C2.65731 15.5023 1.69354 13.1756 1.69354 10.7495C1.69354 8.32333 2.65731 5.99657 4.37284 4.28104C6.08837 2.56551 8.41513 1.60174 10.8413 1.60174C13.2674 1.60174 15.5941 2.56551 17.3097 4.28104C19.0252 5.99657 19.989 8.32333 19.989 10.7495C19.989 13.1756 19.0252 15.5023 17.3097 17.2179C15.5941 18.9334 13.2674 19.8972 10.8413 19.8972ZM10.8413 21.204C13.614 21.204 16.2731 20.1025 18.2337 18.1419C20.1943 16.1813 21.2958 13.5222 21.2958 10.7495C21.2958 7.97674 20.1943 5.31759 18.2337 3.35698C16.2731 1.39638 13.614 0.294922 10.8413 0.294922C8.06854 0.294922 5.40939 1.39638 3.44878 3.35698C1.48818 5.31759 0.386719 7.97674 0.386719 10.7495C0.386719 13.5222 1.48818 16.1813 3.44878 18.1419C5.40939 20.1025 8.06854 21.204 10.8413 21.204Z" fill="#868686"/>
<path d="M12.0564 8.90459L9.06375 9.27965L8.95659 9.77624L9.54466 9.8847C9.92886 9.97618 10.0047 10.1147 9.92102 10.4976L8.95659 15.0296C8.70307 16.2019 9.09381 16.7533 10.0125 16.7533C10.7247 16.7533 11.5519 16.424 11.927 15.9719L12.042 15.4282C11.7806 15.6582 11.399 15.7497 11.1455 15.7497C10.7861 15.7497 10.6555 15.4975 10.7482 15.0532L12.0564 8.90459ZM12.1478 6.17596C12.1478 6.52255 12.0102 6.85494 11.7651 7.10002C11.52 7.34509 11.1876 7.48277 10.841 7.48277C10.4944 7.48277 10.162 7.34509 9.91696 7.10002C9.67189 6.85494 9.53421 6.52255 9.53421 6.17596C9.53421 5.82937 9.67189 5.49697 9.91696 5.2519C10.162 5.00682 10.4944 4.86914 10.841 4.86914C11.1876 4.86914 11.52 5.00682 11.7651 5.2519C12.0102 5.49697 12.1478 5.82937 12.1478 6.17596Z" fill="#868686"/>
</svg>
