<svg id="myImg" class="mainimage" style="fill:#0273a2" role="img" xmlns="http://www.w3.org/2000/svg" viewBox="0 0 1000 1000"><title>Login Arrow Outline SVG icon</title><g><g><g><path d="M892,10.8H451.1c-20,0-36.2,16.2-36.2,36.2c0,20,16.2,36.2,36.2,36.2h433v833.3H452.5c-20,0-36.2,16.2-36.2,36.2c0,20,16.2,36.2,36.2,36.2H892c35.6,0,64.6-29,64.6-64.6V75.5C956.6,39.8,927.6,10.8,892,10.8z"></path><path d="M892,990H452.5c-20.5,0-37.1-16.6-37.1-37.1c0-20.5,16.6-37.1,37.1-37.1h430.8V84.2H451.1c-20.5,0-37.1-16.6-37.1-37.1c0-20.5,16.6-37.1,37.1-37.1H892c36.1,0,65.5,29.4,65.5,65.5v849.1C957.4,960.6,928.1,990,892,990z M452.5,917.5c-19.5,0-35.4,15.9-35.4,35.4c0,19.5,15.9,35.4,35.4,35.4H892c35.2,0,63.8-28.6,63.8-63.8V75.5c0-35.2-28.6-63.8-63.8-63.8H451.1c-19.5,0-35.4,15.9-35.4,35.4c0,19.5,15.9,35.4,35.4,35.4H885v835H452.5z"></path></g><g><path d="M43.4,393.6v206.8c0,51.9,42.2,94.1,94.1,94.1h236.1V728c0,13.3,2.7,26.2,8,38.2c5.1,11.5,12.3,21.7,21.6,30.3c17.6,16.5,40.6,25.6,64.7,25.6c23.4,0,45.9-8.7,63.3-24.6l253.2-231c19.5-17.8,30.7-43.1,30.7-69.5c0-26.4-11.2-51.8-30.7-69.6l-253.2-231c-17.4-15.9-39.9-24.6-63.3-24.6c-24.1,0-47.1,9.1-64.7,25.6c-9.2,8.6-16.5,18.8-21.5,30.3c-5.3,12.1-8.1,24.9-8.1,38.2v33.4H137.5C85.6,299.4,43.4,341.7,43.4,393.6z M424.5,371.9c12,0,21.7-9.7,21.7-21.7V266c0-13,10.6-21.7,21.8-21.7c5,0,10.1,1.8,14.5,5.7l253.2,231c9.4,8.6,9.4,23.4,0,32L482.4,744c-4.3,3.9-9.4,5.7-14.5,5.7c-11.2,0-21.8-8.7-21.8-21.7v-84.2c0-12-9.7-21.7-21.7-21.7H137.5c-12,0-21.7-9.7-21.7-21.7V393.6c0-12,9.7-21.7,21.7-21.7L424.5,371.9L424.5,371.9z"></path><path d="M467.9,823c-24.3,0-47.5-9.2-65.3-25.8c-9.3-8.7-16.6-19-21.7-30.6c-5.4-12.2-8.1-25.1-8.1-38.6v-32.6H137.5c-52.4,0-95-42.6-95-95V393.6c0-52.4,42.6-95,95-95h235.3V266c0-13.4,2.7-26.4,8.1-38.6c5.1-11.6,12.5-21.9,21.7-30.6c17.8-16.7,40.9-25.8,65.3-25.8c23.6,0,46.3,8.8,63.9,24.9l253.2,231c19.7,18,31,43.5,31,70.2c0,26.6-11.3,52.2-31,70.2l-253.2,231C514.2,814.2,491.5,823,467.9,823z M137.5,300.3c-51.4,0-93.3,41.9-93.3,93.3v206.8c0,51.4,41.8,93.3,93.3,93.3h237V728c0,13.2,2.7,25.9,8,37.9c5.1,11.4,12.2,21.5,21.4,30.1c17.4,16.4,40.2,25.4,64.1,25.4c23.2,0,45.5-8.7,62.7-24.4l253.2-231c19.3-17.6,30.4-42.8,30.4-68.9c0-26.2-11.1-51.3-30.4-68.9l-253.2-231c-17.3-15.7-39.5-24.4-62.7-24.4c-23.9,0-46.7,9-64.1,25.4c-9.1,8.6-16.3,18.7-21.4,30.1c-5.3,11.9-8,24.7-8,37.9v34.3L137.5,300.3L137.5,300.3z M467.9,750.5c-10.9,0-22.6-8.6-22.6-22.5v-84.2c0-11.5-9.3-20.8-20.8-20.8H137.5c-12.4,0-22.5-10.1-22.5-22.5V393.6c0-12.4,10.1-22.5,22.5-22.5h286.9h0c5.6,0,10.8-2.2,14.7-6.1c3.9-3.9,6.1-9.2,6.1-14.7V266c0-13.9,11.7-22.5,22.6-22.5c5.6,0,10.8,2,15,5.9l253.2,231c4.7,4.3,7.3,10.3,7.3,16.6c0,6.3-2.7,12.4-7.3,16.6L483,744.6C478.7,748.5,473.5,750.5,467.9,750.5z M137.5,372.8c-11.5,0-20.8,9.3-20.8,20.8v206.8c0,11.5,9.3,20.8,20.8,20.8h286.9c12.4,0,22.5,10.1,22.5,22.5V728c0,12.9,10.9,20.8,20.9,20.8c5.2,0,10-1.9,13.9-5.5l253.2-231c4.3-3.9,6.8-9.5,6.8-15.4c0-5.8-2.5-11.4-6.8-15.4l-253.2-231c-3.9-3.6-8.7-5.5-13.9-5.5c-13.1,0-20.9,10.6-20.9,20.9v84.2c0,12.4-10.1,22.5-22.5,22.5L137.5,372.8z"></path></g></g></g></svg>