<svg width="18" height="20" viewBox="0 0 18 20" fill="none" xmlns="http://www.w3.org/2000/svg">
<g clip-path="url(#clip0_3_237)">
<path d="M1.57786 11.63L1.00586 11.144L1.57786 11.63ZM2.45686 9.588L1.71486 9.5L2.45686 9.588ZM15.7869 9.588L16.5319 9.504L15.7869 9.588ZM16.6659 11.63L17.2379 11.144L16.6659 11.63ZM15.4459 6.544L14.7009 6.628L15.4459 6.544ZM2.80486 6.544L3.54986 6.628L2.80486 6.544ZM12.8279 17.013C12.8805 16.8316 12.8627 16.6369 12.7781 16.468C12.6935 16.2991 12.5482 16.1684 12.3713 16.1019C12.1945 16.0355 11.9991 16.0382 11.8242 16.1096C11.6492 16.181 11.5077 16.3158 11.4279 16.487L12.8279 17.013ZM6.82786 16.487C6.79906 16.3877 6.75005 16.2955 6.68392 16.2161C6.61779 16.1366 6.53595 16.0717 6.44355 16.0254C6.35115 15.9791 6.25017 15.9524 6.14696 15.947C6.04375 15.9416 5.94053 15.9575 5.84377 15.9939C5.74702 16.0302 5.65883 16.0862 5.58473 16.1582C5.51062 16.2303 5.45221 16.3169 5.41316 16.4126C5.37411 16.5083 5.35525 16.611 5.35778 16.7143C5.36031 16.8176 5.38417 16.9193 5.42786 17.013L6.82786 16.487ZM15.2949 14H2.95486V15.5H15.2949V14ZM14.6999 6.628L15.0449 9.672L16.5359 9.5L16.1909 6.46L14.6999 6.628ZM3.20486 9.673L3.54986 6.629L2.05986 6.46L1.71486 9.5L3.20486 9.673ZM2.15186 12.116C2.73751 11.4242 3.10406 10.5738 3.20486 9.673L1.71486 9.5C1.64738 10.1046 1.40163 10.6754 1.00886 11.14L2.15186 12.116ZM15.0449 9.673C15.1457 10.5738 15.5123 11.4242 16.0979 12.116L17.2409 11.145C16.848 10.6805 16.6023 10.1096 16.5349 9.505L15.0449 9.673ZM2.95486 14C2.74166 13.9891 2.53583 13.9185 2.36088 13.7961C2.18592 13.6738 2.0489 13.5048 1.96547 13.3083C1.88203 13.1118 1.85554 12.8958 1.88903 12.685C1.92252 12.4741 2.01464 12.277 2.15486 12.116L1.00886 11.144C0.682702 11.5232 0.471121 11.9874 0.398804 12.4823C0.326486 12.9772 0.396415 13.4825 0.60043 13.9391C0.804445 14.3958 1.13413 14.785 1.55101 15.0614C1.9679 15.3378 2.45478 15.4899 2.95486 15.5V14ZM15.2949 15.5C15.7949 15.4899 16.2818 15.3378 16.6987 15.0614C17.1156 14.785 17.4453 14.3958 17.6493 13.9391C17.8533 13.4825 17.9232 12.9772 17.8509 12.4823C17.7786 11.9874 17.567 11.5232 17.2409 11.144L16.0979 12.115C16.2381 12.276 16.3302 12.4731 16.3637 12.684C16.3972 12.8948 16.3707 13.1108 16.2872 13.3073C16.2038 13.5038 16.0668 13.6728 15.8918 13.7951C15.7169 13.9175 15.511 13.9881 15.2979 13.999L15.2949 15.5ZM16.1949 6.46C16.0171 4.70221 15.1978 3.07158 13.8935 1.87984C12.5892 0.688091 10.8915 0.0188314 9.12486 0V1.5C10.522 1.51989 11.8629 2.05381 12.8913 2.99975C13.9197 3.9457 14.5635 5.23737 14.6999 6.628L16.1949 6.46ZM3.54986 6.628C3.68617 5.23737 4.33004 3.9457 5.35844 2.99975C6.38685 2.05381 7.7277 1.51989 9.12486 1.5V0C7.35907 0.0200529 5.66255 0.689859 4.35932 1.88149C3.05609 3.07312 2.23749 4.70306 2.05986 6.46L3.54986 6.628ZM11.4229 16.486C11.2381 16.9413 10.9195 17.3298 10.5092 17.6002C10.0989 17.8705 9.61613 18.0099 9.12486 18V19.5C9.92106 19.5097 10.7014 19.277 11.3622 18.8328C12.0231 18.3886 12.5332 17.7539 12.8249 17.013L11.4229 16.486ZM9.12486 18C8.63336 18.0104 8.15028 17.8713 7.73957 17.6012C7.32886 17.331 7.00988 16.9425 6.82486 16.487L5.42486 17.013C5.71652 17.7539 6.22664 18.3886 6.88749 18.8328C7.54833 19.277 8.32865 19.5097 9.12486 19.5V18Z" fill="#28303F"/>
</g>
<defs>
<clipPath id="clip0_3_237">
<rect width="17.495" height="19.5" fill="white" transform="translate(0.376953)"/>
</clipPath>
</defs>
</svg>
