<svg width="18" height="24" viewBox="0 0 18 24" fill="none" xmlns="http://www.w3.org/2000/svg">
<path d="M7.604 15.576C7.604 14.7867 7.732 14.0933 7.988 13.496C8.244 12.8987 8.57467 12.3653 8.98 11.896C9.38533 11.4267 9.812 10.9893 10.26 10.584C10.7293 10.1787 11.1667 9.784 11.572 9.4C11.9773 9.016 12.308 8.61067 12.564 8.184C12.82 7.75733 12.948 7.27733 12.948 6.744C12.948 5.848 12.5853 5.12267 11.86 4.568C11.1347 4.01333 10.164 3.736 8.948 3.736C7.77467 3.736 6.75067 3.94933 5.876 4.376C5.02267 4.80267 4.308 5.41067 3.732 6.2L0.628 4.184C1.524 2.968 2.69733 2.01867 4.148 1.336C5.59867 0.631999 7.316 0.279999 9.3 0.279999C10.8573 0.279999 12.2227 0.514666 13.396 0.983999C14.5693 1.432 15.4867 2.09333 16.148 2.968C16.8093 3.82133 17.14 4.86667 17.14 6.104C17.14 6.95733 17.0013 7.704 16.724 8.344C16.468 8.984 16.1267 9.54933 15.7 10.04C15.2947 10.5093 14.8573 10.9573 14.388 11.384C13.9187 11.7893 13.4707 12.1947 13.044 12.6C12.6387 13.0053 12.308 13.4427 12.052 13.912C11.796 14.3813 11.668 14.936 11.668 15.576H7.604ZM9.652 23.224C8.90533 23.224 8.28667 22.9787 7.796 22.488C7.32667 21.9973 7.092 21.4107 7.092 20.728C7.092 20.0453 7.32667 19.4693 7.796 19C8.28667 18.5093 8.90533 18.264 9.652 18.264C10.3987 18.264 11.0067 18.5093 11.476 19C11.9453 19.4693 12.18 20.0453 12.18 20.728C12.18 21.4107 11.9453 21.9973 11.476 22.488C11.0067 22.9787 10.3987 23.224 9.652 23.224Z" fill="#28303F"/>
</svg>
