<svg width="28" height="28" viewBox="0 0 28 28" fill="none" xmlns="http://www.w3.org/2000/svg">
<path d="M4.66602 13.6816C4.66602 13.2387 4.9952 12.8726 5.42228 12.8146L5.54102 12.8066H23.041C23.5242 12.8066 23.916 13.1984 23.916 13.6816C23.916 14.1246 23.5868 14.4907 23.1597 14.5486L23.041 14.5566H5.54102C5.05777 14.5566 4.66602 14.1649 4.66602 13.6816Z" fill="#D02C34"/>
<path d="M15.3651 7.27239C15.0227 6.93142 15.0215 6.3774 15.3624 6.03496C15.6724 5.72365 16.1585 5.69436 16.5015 5.94778L16.5999 6.03229L23.6582 13.0603C23.9704 13.3712 23.9988 13.859 23.7434 14.2021L23.6583 14.3004L16.5999 21.3295C16.2575 21.6705 15.7035 21.6694 15.3625 21.327C15.0525 21.0157 15.0252 20.5295 15.2801 20.1875L15.365 20.0895L21.8004 13.68L15.3651 7.27239Z" fill="#D02C34"/>
</svg>
