<svg width="22" height="21" viewBox="0 0 22 21" fill="none" xmlns="http://www.w3.org/2000/svg">
<path fill-rule="evenodd" clip-rule="evenodd" d="M19.6249 1.6572L21.3541 6.45928C21.7303 7.38912 21.6373 8.44303 21.1041 9.29262C20.6504 9.9365 19.9939 10.4096 19.2395 10.6364V17.7197C19.2231 18.5154 18.8912 19.272 18.3168 19.8229C17.7425 20.3738 16.9727 20.674 16.177 20.6572H6.11452C5.30895 20.6881 4.52464 20.3946 3.93724 19.8425C3.34985 19.2903 3.00846 18.5256 2.98952 17.7197V10.7405C2.25614 10.5726 1.59557 10.1748 1.10411 9.60512C0.397428 8.72299 0.222166 7.52802 0.645772 6.48012L2.36452 1.66762C2.76987 0.641274 3.77173 -0.0238581 4.87494 0.000949395H17.1145C18.216 -0.0285768 19.2187 0.632944 19.6249 1.6572ZM12.4077 18.9593H12.4166V18.9905C12.4149 18.9849 12.4132 18.9792 12.4116 18.9735C12.4103 18.9688 12.409 18.964 12.4077 18.9593ZM12.4077 18.9593H9.76035C9.77027 18.8797 9.77027 18.7993 9.76035 18.7197V16.5218C9.7785 16.1913 9.93144 15.8827 10.1835 15.6681C10.4355 15.4534 10.7645 15.3516 11.0937 15.3864C11.7483 15.3384 12.3196 15.8261 12.3749 16.4801V18.7093C12.3749 18.7937 12.3859 18.8778 12.4077 18.9593ZM16.1249 18.9593H13.927C13.9369 18.8797 13.9369 18.7993 13.927 18.7197V16.5218C13.8705 14.9879 12.5862 13.7874 11.052 13.8343C9.51383 13.7816 8.22313 14.9837 8.16661 16.5218V18.7509C8.15669 18.8305 8.15669 18.911 8.16661 18.9905H6.06244C5.29513 19.0259 4.64342 18.4347 4.60411 17.6676V10.7197C5.99199 10.5102 7.10664 9.46597 7.40619 8.0947C7.77308 9.75834 9.30001 10.9046 10.9999 10.7926C12.6692 10.8626 14.1484 9.72573 14.5104 8.0947C14.8034 9.55231 16.0107 10.6498 17.4895 10.803V17.7197C17.4258 18.4296 16.8375 18.9774 16.1249 18.9905V18.9593ZM18.2083 8.9697C18.7605 8.95519 19.2721 8.67614 19.5833 8.2197V8.25095C19.7994 7.88679 19.8266 7.44072 19.6562 7.05303L17.9374 2.31345C17.785 2.00347 17.4589 1.81776 17.1145 1.8447H4.87494C4.54359 1.8144 4.22537 1.98167 4.06244 2.27178L2.34369 7.05303C2.12031 7.49513 2.16042 8.02463 2.44786 8.42803C2.70748 8.74706 3.08106 8.95253 3.48952 9.00095C3.62102 9.01629 3.75386 9.01629 3.88536 9.00095C4.68688 9.04473 5.41077 8.52457 5.62494 7.75095C5.78387 6.87042 6.54282 6.22488 7.43744 6.20928C8.3417 6.20885 9.11122 6.86781 9.24994 7.76137C9.46197 8.53975 10.1953 9.05919 10.9999 9.00095C11.8112 9.05502 12.5444 8.5194 12.7395 7.73012C12.8902 6.84328 13.6526 6.19045 14.552 6.17803C15.4529 6.1768 16.2212 6.83028 16.3645 7.7197C16.5767 8.50385 17.3147 9.02781 18.1249 8.9697H18.2083Z" fill="#28303F"/>
</svg>
