<svg width="21" height="19" viewBox="0 0 21 19" fill="none" xmlns="http://www.w3.org/2000/svg">
<path d="M19.0058 1.62864C18.4892 1.11205 17.8759 0.702322 17.2009 0.422871C16.5259 0.14342 15.8024 -0.000273946 15.0718 3.92078e-07C14.3413 0.00027473 13.6179 0.144512 12.9431 0.42447C12.2683 0.704428 11.6553 1.11462 11.1391 1.6316L10.4652 2.31364L9.79702 1.63308L9.79268 1.62873C9.27633 1.11238 8.66334 0.70279 7.9887 0.423343C7.31406 0.143896 6.59098 6.6182e-05 5.86075 6.6182e-05C5.13053 6.6182e-05 4.40745 0.143896 3.73281 0.423343C3.05817 0.70279 2.44517 1.11238 1.92883 1.62873L1.62864 1.92892C0.58584 2.97172 0 4.38607 0 5.86082C0 7.33557 0.58584 8.74992 1.62864 9.79272L9.55127 17.7153L10.446 18.6527L10.4673 18.6313L10.4904 18.6544L11.3287 17.77L19.306 9.79259C20.3473 8.74896 20.932 7.33492 20.932 5.86069C20.932 4.38646 20.3473 2.97242 19.306 1.92878L19.0058 1.62864ZM18.3228 8.80963L10.4673 16.6654L2.61156 8.80963C1.82946 8.02753 1.39008 6.96677 1.39008 5.86071C1.39008 4.75465 1.82946 3.69389 2.61156 2.91179L2.91179 2.6116C3.69351 1.82989 4.75363 1.39054 5.85914 1.39013C6.96466 1.38971 8.02511 1.82826 8.80742 2.60939L10.4622 4.29437L12.1249 2.6116C12.5122 2.22434 12.9719 1.91715 13.4779 1.70756C13.9839 1.49798 14.5262 1.39011 15.0739 1.39011C15.6216 1.39011 16.1639 1.49798 16.6698 1.70756C17.1758 1.91715 17.6356 2.22434 18.0228 2.6116L18.323 2.91174C19.1039 3.69449 19.5425 4.75504 19.5424 5.86072C19.5424 6.96641 19.1038 8.02693 18.3228 8.80963Z" fill="#28303F"/>
</svg>
