<svg width="13" height="13" viewBox="0 0 13 13" fill="none" xmlns="http://www.w3.org/2000/svg">
<path d="M12.0714 1.85714H7.42857V0.928571C7.42857 0.682299 7.33074 0.446113 7.1566 0.271972C6.98246 0.0978313 6.74627 0 6.5 0H0.928571C0.682299 0 0.446113 0.0978313 0.271972 0.271972C0.0978313 0.446113 0 0.682299 0 0.928571V10.2143C0 10.4606 0.0978313 10.6967 0.271972 10.8709C0.446113 11.045 0.682299 11.1429 0.928571 11.1429H5.57143V12.0714C5.57143 12.3177 5.66926 12.5539 5.8434 12.728C6.01754 12.9022 6.25373 13 6.5 13H12.0714C12.3177 13 12.5539 12.9022 12.728 12.728C12.9022 12.5539 13 12.3177 13 12.0714V2.78571C13 2.53944 12.9022 2.30326 12.728 2.12912C12.5539 1.95497 12.3177 1.85714 12.0714 1.85714ZM0.928571 6.03571H3.79321L2.59536 7.23821L3.25 7.89286L5.57143 5.57143L3.25 3.25L2.59536 3.90464L3.79321 5.10714H0.928571V0.928571H6.5V10.2143H0.928571V6.03571ZM6.5 12.0714V11.1429C6.74627 11.1429 6.98246 11.045 7.1566 10.8709C7.33074 10.6967 7.42857 10.4606 7.42857 10.2143V2.78571H12.0714V6.96429H9.20679L10.4046 5.76179L9.75 5.10714L7.42857 7.42857L9.75 9.75L10.4046 9.09536L9.20679 7.89286H12.0714V12.0714H6.5Z" fill="#28303F"/>
</svg>
