<svg width="18" height="18" viewBox="0 0 18 18" fill="none" xmlns="http://www.w3.org/2000/svg">
<path fill-rule="evenodd" clip-rule="evenodd" d="M8.4432 0.018472H8.36945L2.83861 0.4116C1.55044 0.525921 0.529528 1.53847 0.414262 2.81608L0.00866679 8.30158C-0.04226 8.80633 0.133011 9.30778 0.488006 9.67296L8.26805 17.3892C8.59666 17.7032 9.03789 17.8743 9.49406 17.8646C10.192 17.8586 10.8574 17.5715 11.3377 17.0692L17.2096 11.2546C18.1217 10.5046 18.2648 9.17025 17.5322 8.24673L9.70607 0.475597C9.37582 0.164209 8.9357 -0.00645743 8.48007 0.000186983L8.4432 0.018472ZM8.48006 1.49051C8.53406 1.47367 8.59198 1.47367 8.64598 1.49051L16.4352 9.21593C16.5106 9.55859 16.3817 9.91378 16.1034 10.1302L10.2131 15.9722C10.019 16.181 9.75197 16.3085 9.46639 16.3288H9.30968L1.54807 8.56681C1.52328 8.50202 1.52328 8.43047 1.54807 8.36568L1.95367 2.88017C2.02603 2.38265 2.41297 1.98781 2.91235 1.90193L8.44319 1.5088L8.48006 1.49051ZM5.14332 6.47303C5.90697 6.47303 6.52603 5.85904 6.52603 5.10165C6.52603 4.34426 5.90697 3.73028 5.14332 3.73028C4.37967 3.73028 3.76061 4.34426 3.76061 5.10165C3.76061 5.85904 4.37967 6.47303 5.14332 6.47303Z" fill="#28303F"/>
</svg>
