<svg width="26" height="25" viewBox="0 0 26 25" fill="none" xmlns="http://www.w3.org/2000/svg">
<g clip-path="url(#clip0_3_233)">
<path d="M18.6905 6.4823C19.9286 6.4823 20.881 7.44616 20.881 8.69917V16.9883C20.881 18.2413 19.9286 19.2052 18.6905 19.2052H6.30952C5.07143 19.2052 4.11905 18.2413 4.11905 16.9883V8.69917C4.11905 7.44616 5.07143 6.4823 6.30952 6.4823H18.6905V6.4823ZM18.6905 4.84375H6.30952C4.21429 4.84375 2.5 6.57869 2.5 8.69917V16.9883C2.5 19.1088 4.21429 20.8437 6.30952 20.8437H18.6905C20.7857 20.8437 22.5 19.1088 22.5 16.9883V8.69917C22.5 6.57869 20.7857 4.84375 18.6905 4.84375Z" fill="#0B1C3F"/>
<path d="M21.4517 11.2051H18.7851C17.9279 11.2051 17.166 11.8798 17.166 12.8436C17.166 13.7111 17.8327 14.4822 18.7851 14.4822H21.4517" stroke="#0B1C3F" stroke-width="1.9028" stroke-linecap="round" stroke-linejoin="round"/>
</g>
<defs>
<clipPath id="clip0_3_233">
<rect width="20" height="16" fill="white" transform="translate(2.5 4.84375)"/>
</clipPath>
</defs>
</svg>
