<svg width="28" height="28" viewBox="0 0 28 28" fill="none" xmlns="http://www.w3.org/2000/svg">
<path d="M23.334 13.6816C23.334 13.2387 23.0048 12.8726 22.5777 12.8146L22.459 12.8066H4.95898C4.47573 12.8066 4.08398 13.1984 4.08398 13.6816C4.08398 14.1246 4.41316 14.4907 4.84025 14.5486L4.95898 14.5566H22.459C22.9423 14.5566 23.334 14.1649 23.334 13.6816Z" fill="#D02C34"/>
<path d="M12.6347 7.27239C12.9771 6.93142 12.9783 6.3774 12.6374 6.03496C12.3274 5.72365 11.8413 5.69436 11.4983 5.94778L11.3999 6.03229L4.3416 13.0603C4.02936 13.3712 4.00095 13.859 4.2564 14.2021L4.34155 14.3004L11.3999 21.3295C11.7423 21.6705 12.2963 21.6694 12.6373 21.327C12.9473 21.0157 12.9746 20.5295 12.7197 20.1875L12.6348 20.0895L6.19939 13.68L12.6347 7.27239Z" fill="#D02C34"/>
</svg>
