<svg width="20" height="25" viewBox="0 0 20 25" fill="none" xmlns="http://www.w3.org/2000/svg">
<g clip-path="url(#clip0_1_768)">
<path fill-rule="evenodd" clip-rule="evenodd" d="M9.72222 11.1111C10.821 11.1111 11.8951 10.7853 12.8087 10.1748C13.7223 9.56438 14.4344 8.69672 14.8549 7.68158C15.2754 6.66643 15.3854 5.5494 15.171 4.47172C14.9567 3.39405 14.4276 2.40415 13.6506 1.62719C12.8736 0.850229 11.8837 0.321113 10.8061 0.106751C9.72838 -0.107611 8.61135 0.00240712 7.5962 0.422894C6.58106 0.843381 5.7134 1.55545 5.10295 2.46906C4.49249 3.38266 4.16667 4.45677 4.16667 5.55556C4.16667 7.02898 4.75198 8.44206 5.79385 9.48393C6.83572 10.5258 8.2488 11.1111 9.72222 11.1111ZM9.72222 25C15.0917 25 19.4444 22.5125 19.4444 19.4444C19.4444 16.3764 15.0917 13.8889 9.72222 13.8889C4.35278 13.8889 0 16.3764 0 19.4444C0 22.5125 4.35278 25 9.72222 25Z" fill="#28303F"/>
</g>
<defs>
<clipPath id="clip0_1_768">
<rect width="19.4444" height="25" fill="white"/>
</clipPath>
</defs>
</svg>
