<svg width="83" height="22" viewBox="0 0 83 22" fill="none" xmlns="http://www.w3.org/2000/svg">
<path d="M72.8076 9.04812V13.5143H76.4098V15.615C76.1276 15.7805 75.8122 15.8962 75.447 15.9789C75.0818 16.0617 74.6004 16.0947 74.0028 16.0947C73.2558 16.0947 72.5918 15.9789 71.9776 15.7308C71.3634 15.4992 70.8322 15.1519 70.4006 14.7053C69.9524 14.2586 69.6204 13.7293 69.3714 13.1173C69.1224 12.5053 68.9896 11.8271 68.9896 11.0827V11.0165C68.9896 10.3053 69.1058 9.64361 69.3382 9.03158C69.5706 8.43609 69.9026 7.90677 70.3176 7.47669C70.7326 7.03008 71.2472 6.69925 71.8282 6.45113C72.4092 6.20301 73.04 6.07068 73.7206 6.07068C74.6004 6.07068 75.4304 6.23609 76.194 6.55038C76.9576 6.86466 77.688 7.31128 78.3852 7.90677L82.3194 3.17594C81.174 2.18346 79.8792 1.38947 78.4184 0.843609C76.9576 0.281203 75.3308 0 73.5048 0C71.8448 0 70.301 0.281203 68.89 0.827068C67.479 1.37293 66.2506 2.13383 65.2048 3.12632C64.159 4.10226 63.3456 5.26015 62.7646 6.6C62.25 7.77444 61.9678 9.04812 61.9014 10.388L57.6684 0.297744H50.6964L44.6872 14.6226V0.446617H37.3334L32.8182 7.82406L28.3196 0.446617H20.9824V5.14436C20.6338 4.51579 20.2188 3.93684 19.754 3.40752C18.8244 2.36541 17.6624 1.53835 16.2514 0.926316C14.8404 0.314286 13.1638 0 11.2548 0C9.6114 0 8.1008 0.281203 6.723 0.843609C5.3452 1.40602 4.15 2.18346 3.154 3.17594C2.158 4.16842 1.3778 5.32632 0.83 6.64962C0.2822 7.97293 0 9.39549 0 10.9173V11C0 12.6211 0.2988 14.1098 0.8798 15.4496C1.4774 16.7895 2.2908 17.9308 3.3532 18.8737C4.4156 19.8165 5.6606 20.5444 7.1214 21.0737C8.5822 21.603 10.1758 21.8677 11.9354 21.8677C14.1598 21.8677 16.0688 21.4872 17.6458 20.7098C18.426 20.3293 19.1232 19.8827 19.7706 19.3865L16.2348 15.1188C15.8032 15.4331 15.355 15.6812 14.9234 15.8632C14.1432 16.194 13.28 16.3594 12.3504 16.3594C11.122 16.3594 10.0762 16.0782 9.2462 15.5158C8.549 15.0361 8.0344 14.3579 7.7024 13.4647H20.9658V21.4211H27.8216V11.0331L32.6854 18.4932H32.8016L37.6654 11.0331V21.4376H49.3352L50.4142 18.6256H57.7846L58.8968 21.4376H66.5328L65.5368 19.0722C66.566 19.9489 67.7446 20.6271 69.0892 21.1068C70.5168 21.6195 72.0606 21.8842 73.704 21.8842C75.6296 21.8842 77.3726 21.603 78.933 21.0241C80.4934 20.4451 81.8546 19.6842 83 18.7579V9.04812H72.8076ZM7.4534 9.03158C7.6858 7.95639 8.1008 7.0797 8.7316 6.43459C9.3956 5.75639 10.2422 5.40902 11.288 5.40902C12.3504 5.40902 13.2302 5.75639 13.9274 6.43459C14.5748 7.0797 14.9898 7.95639 15.1392 9.03158H7.4534ZM52.1904 13.6466L54.116 8.55188L56.0416 13.6466H52.1904Z" fill="url(#paint0_linear_1_1279)"/>
<defs>
<linearGradient id="paint0_linear_1_1279" x1="0.661842" y1="10.9381" x2="82.3433" y2="10.9381" gradientUnits="userSpaceOnUse">
<stop offset="0.05" stop-color="#FF1D25"/>
<stop offset="0.35" stop-color="#A0328C"/>
<stop offset="0.45" stop-color="#7040A4"/>
<stop offset="0.55" stop-color="#4359C7"/>
<stop offset="0.7" stop-color="#0082E6"/>
</linearGradient>
</defs>
</svg>
